<svg id="language_FILL0_wght300_GRAD0_opsz48" xmlns="http://www.w3.org/2000/svg" width="20.668" height="20.668" viewBox="0 0 20.668 20.668">
  <path id="language_FILL0_wght300_GRAD0_opsz48-2" data-name="language_FILL0_wght300_GRAD0_opsz48" d="M15.334,25.668a10.08,10.08,0,0,1-4.038-.816A10.471,10.471,0,0,1,8,22.636a10.323,10.323,0,0,1-3-7.356,10.129,10.129,0,0,1,.8-4.025A10.324,10.324,0,0,1,8,7.978,10.1,10.1,0,0,1,11.3,5.789a10.734,10.734,0,0,1,8.077,0,10.1,10.1,0,0,1,3.291,2.189,10.324,10.324,0,0,1,2.2,3.277,10.129,10.129,0,0,1,.8,4.025,10.323,10.323,0,0,1-3,7.356,10.471,10.471,0,0,1-3.291,2.216A10.08,10.08,0,0,1,15.334,25.668Zm4-14.141h4.324A8.937,8.937,0,0,0,21,8.141a9.186,9.186,0,0,0-3.957-1.754A11.116,11.116,0,0,1,18.393,8.7,17.531,17.531,0,0,1,19.331,11.527Zm-6.717,0h5.493a11.85,11.85,0,0,0-1.074-2.883,11.454,11.454,0,0,0-1.7-2.42A7.275,7.275,0,0,0,13.77,8.318,16.305,16.305,0,0,0,12.614,11.527ZM6.6,17.89h4.487q-.082-.761-.109-1.387t-.027-1.224q0-.653.027-1.237a11.391,11.391,0,0,1,.136-1.265H6.6a9.288,9.288,0,0,0-.286,1.21,8.069,8.069,0,0,0-.1,1.292,8.788,8.788,0,0,0,.1,1.346A10.025,10.025,0,0,0,6.6,17.89Zm7.016,6.363a10.285,10.285,0,0,1-1.373-2.3,14.478,14.478,0,0,1-.911-2.842H7.012a9.153,9.153,0,0,0,2.611,3.331,10.714,10.714,0,0,0,4,1.808ZM7.012,11.527h4.324a15.9,15.9,0,0,1,.911-2.76,12.769,12.769,0,0,1,1.346-2.352,9.159,9.159,0,0,0-3.93,1.727A9.011,9.011,0,0,0,7.012,11.527ZM15.334,24.5a11.1,11.1,0,0,0,1.659-2.393,14.349,14.349,0,0,0,1.088-2.991H12.614a14.091,14.091,0,0,0,1.061,2.991A10.28,10.28,0,0,0,15.334,24.5ZM12.37,17.89h5.956q.109-.843.15-1.414t.041-1.2q0-.571-.041-1.129t-.15-1.373H12.37q-.109.816-.15,1.373t-.041,1.129q0,.625.041,1.2t.15,1.414Zm4.7,6.363a9.848,9.848,0,0,0,3.875-1.822,9.362,9.362,0,0,0,2.706-3.318h-4.3a19.889,19.889,0,0,1-.979,2.828,12.207,12.207,0,0,1-1.305,2.312Zm2.475-6.363h4.514a10.026,10.026,0,0,0,.286-1.265,8.788,8.788,0,0,0,.1-1.346,8.069,8.069,0,0,0-.1-1.292,9.289,9.289,0,0,0-.286-1.21H19.576q.082.9.122,1.455t.041,1.047q0,.625-.041,1.21T19.549,17.89Z" transform="translate(-5 -5)" fill="#5224b5"/>
</svg>
