<svg xmlns="http://www.w3.org/2000/svg" xmlns:xlink="http://www.w3.org/1999/xlink" width="150" zoomAndPan="magnify" viewBox="0 0 112.5 112.499997" height="150" preserveAspectRatio="xMidYMid meet" version="1.0"><defs><clipPath id="2bb05c1191"><path d="M 11.25 52 L 101.25 52 L 101.25 61 L 11.25 61 Z M 11.25 52 " clip-rule="nonzero"/></clipPath><clipPath id="977fa00828"><path d="M 11.25 26.101562 L 101.25 26.101562 L 101.25 34 L 11.25 34 Z M 11.25 26.101562 " clip-rule="nonzero"/></clipPath><clipPath id="18b190c2d2"><path d="M 11.265625 78.175781 L 101.234375 78.175781 L 101.234375 86.101562 L 11.265625 86.101562 Z M 11.265625 78.175781 " clip-rule="nonzero"/></clipPath></defs><g clip-path="url(#2bb05c1191)"><path fill="#000000" d="M 97.300781 60.015625 L 15.199219 60.015625 C 13.027344 60.015625 11.265625 58.261719 11.265625 56.101562 C 11.265625 53.941406 13.027344 52.1875 15.199219 52.1875 L 97.300781 52.1875 C 99.472656 52.1875 101.234375 53.941406 101.234375 56.101562 C 101.234375 58.261719 99.472656 60.015625 97.300781 60.015625 " fill-opacity="1" fill-rule="nonzero"/></g><g clip-path="url(#977fa00828)"><path fill="#000000" d="M 97.300781 33.925781 L 15.199219 33.925781 C 13.027344 33.925781 11.265625 32.175781 11.265625 30.011719 C 11.265625 27.851562 13.027344 26.101562 15.199219 26.101562 L 97.300781 26.101562 C 99.472656 26.101562 101.234375 27.851562 101.234375 30.011719 C 101.234375 32.175781 99.472656 33.925781 97.300781 33.925781 " fill-opacity="1" fill-rule="nonzero"/></g><g clip-path="url(#18b190c2d2)"><path fill="#000000" d="M 97.300781 86.101562 L 15.199219 86.101562 C 13.027344 86.101562 11.265625 84.351562 11.265625 82.191406 C 11.265625 80.027344 13.027344 78.277344 15.199219 78.277344 L 97.300781 78.277344 C 99.472656 78.277344 101.234375 80.027344 101.234375 82.191406 C 101.234375 84.351562 99.472656 86.101562 97.300781 86.101562 " fill-opacity="1" fill-rule="nonzero"/></g></svg>